# xmcd
#
# Track frame offsets:
# 151
# 14247
# 35006
# 47996
# 62450
# 83219
# 97728
# 115654
# 135041
# 150399
# 168913
# 187185
# 208246
# 225767
# 247137
# 264259
# 277276
# 294304
# 309273
# 324934
#
# Disc length: 4539 seconds
#
#
# Revision: 0
# Processed by: cddbd v1.4PL0 Copyright (c) Steve Scherf et al.
# Submitted via: FreeRIP 2.35 
#
DISCID=0c11b914
DTITLE=Kenny Rogers - Back To The Well
DYEAR=1900
DGENRE=Country
TTITLE0=Back To The Well
TTITLE1=Listen To The Rain
TTITLE2=727 East Magnolia Avenue
TTITLE3=Owe Them More Than That
TTITLE4=Prairie Wedding
TTITLE5=I'm Missing You
TTITLE6=Harder Cards
TTITLE7=Tears In God's Eyes
TTITLE8=Suitcase Full Of Blues
TTITLE9=You Have No Idea
TTITLE10=Handprints On The Wall
TTITLE11=Love Like This
TTITLE12=Lady
TTITLE13=Through The Years
TTITLE14=When A Man Loves A Woman
TTITLE15=As Time Goes By
TTITLE16=Desperado
TTITLE17=Crazy
TTITLE18=When I Fall In Love
TTITLE19=Unchained Melody
EXTD=
EXTT0=
EXTT1=
EXTT2=
EXTT3=
EXTT4=
EXTT5=
EXTT6=
EXTT7=
EXTT8=
EXTT9=
EXTT10=
EXTT11=
EXTT12=
EXTT13=
EXTT14=
EXTT15=
EXTT16=
EXTT17=
EXTT18=
EXTT19=
PLAYORDER=
